# xmcd CD Database Entry
#
# Track frame offsets:
# 150
# 18982
# 36177
# 51612
# 68962
# 83137
# 101157
# 118045
# 137910
# 155370
# 172895
# 188307
# 213595
#
# Disc length: 3241 seconds
#
# Revision: 4
# Processed by: cddbd v1.4PL0 Copyright (c) Steve Scherf et al.
# Submitted via: tcd 2.0b
#
DISCID=b20ca70d
DTITLE=Captain Tractor - Celebrity Traffic Jam
DYEAR=1900
DGENRE=
TTITLE0=The Summer of our Discontent
TTITLE1=Empty Page
TTITLE2=Gwenivere
TTITLE3=Icarus Wings
TTITLE4=Bridges
TTITLE5=Dying
TTITLE6=How do you figure that?
TTITLE7=Too Far to Fall
TTITLE8=One Good Drop of Poison
TTITLE9=Tragic
TTITLE10=Miss Me
TTITLE11=Pour Me Another
TTITLE12=Another Drinking Song
EXTD=
EXTT0=
EXTT1=
EXTT2=
EXTT3=
EXTT4=
EXTT5=
EXTT6=
EXTT7=
EXTT8=
EXTT9=
EXTT10=
EXTT11=
EXTT12=
PLAYORDER=
